HIERARCHY
ROOT Hips
{
	OFFSET -0.001795 -0.223333 0.028219
	CHANNELS 6 Xposition Yposition Zposition Zrotation Yrotation Xrotation 
	JOINT LeftUpLeg
	{
		OFFSET 0.069520 -0.091406 -0.006815
		CHANNELS 3 Zrotation Yrotation Xrotation
		JOINT LeftLeg
		{
			OFFSET 0.034277 -0.375199 -0.004496
			CHANNELS 3 Zrotation Yrotation Xrotation
			JOINT LeftFoot
			{
				OFFSET -0.013596 -0.397961 -0.043693
				CHANNELS 3 Zrotation Yrotation Xrotation
				JOINT LeftToe
				{
					OFFSET 0.026358 -0.055791 0.119288
					CHANNELS 3 Zrotation Yrotation Xrotation
					End Site
					{
						OFFSET 0.000000 0.000000 0.000000
					}
				}
			}
		}
	}
	JOINT RightUpLeg
	{
		OFFSET -0.067670 -0.090522 -0.004320
		CHANNELS 3 Zrotation Yrotation Xrotation
		JOINT RightLeg
		{
			OFFSET -0.038290 -0.382569 -0.008850
			CHANNELS 3 Zrotation Yrotation Xrotation
			JOINT RightFoot
			{
				OFFSET 0.015774 -0.398415 -0.042312
				CHANNELS 3 Zrotation Yrotation Xrotation
				JOINT RightToe
				{
					OFFSET -0.025372 -0.048144 0.123348
					CHANNELS 3 Zrotation Yrotation Xrotation
					End Site
					{
						OFFSET 0.000000 0.000000 0.000000
					}
				}
			}
		}
	}
	JOINT Spine
	{
		OFFSET -0.002533 0.108963 -0.026696
		CHANNELS 3 Zrotation Yrotation Xrotation
		JOINT Spine1
		{
			OFFSET 0.005487 0.135180 0.001092
			CHANNELS 3 Zrotation Yrotation Xrotation
			JOINT Spine2
			{
				OFFSET 0.001457 0.052922 0.025425
				CHANNELS 3 Zrotation Yrotation Xrotation
				JOINT Neck
				{
					OFFSET -0.002778 0.213870 -0.042857
					CHANNELS 3 Zrotation Yrotation Xrotation
					JOINT Head
					{
						OFFSET 0.005152 0.064970 0.051349
						CHANNELS 3 Zrotation Yrotation Xrotation
						End Site
						{
							OFFSET 0.000000 0.000000 0.000000
						}
					}
				}
				JOINT LeftShoulder
				{
					OFFSET 0.078845 0.121749 -0.034090
					CHANNELS 3 Zrotation Yrotation Xrotation
					JOINT LeftArm
					{
						OFFSET 0.090977 0.030469 -0.008868
						CHANNELS 3 Zrotation Yrotation Xrotation
						JOINT LeftForeArm
						{
							OFFSET 0.259612 -0.012772 -0.027456
							CHANNELS 3 Zrotation Yrotation Xrotation
							JOINT LeftHand
							{
								OFFSET 0.249234 0.008986 -0.001171
								CHANNELS 3 Zrotation Yrotation Xrotation
								End Site
								{
									OFFSET 0.000000 0.000000 0.000000
								}
							}
						}
					}
				}
				JOINT RightShoulder
				{
					OFFSET -0.081759 0.118833 -0.038615
					CHANNELS 3 Zrotation Yrotation Xrotation
					JOINT RightArm
					{
						OFFSET -0.096012 0.032551 -0.009143
						CHANNELS 3 Zrotation Yrotation Xrotation
						JOINT RightForeArm
						{
							OFFSET -0.253742 -0.013329 -0.021401
							CHANNELS 3 Zrotation Yrotation Xrotation
							JOINT RightHand
							{
								OFFSET -0.255298 0.007772 -0.005559
								CHANNELS 3 Zrotation Yrotation Xrotation
								End Site
								{
									OFFSET 0.000000 0.000000 0.000000
								}
							}
						}
					}
				}
			}
		}
	}
}
MOTION
Frames: 7
Frame Time: 0.050000
0.000000 0.936770 0.000000 -2.284173 -4.768755 4.847748 4.127591 -0.184113 -2.076162 1.320956 0.200455 -7.452324 -5.909322 -8.443835 7.150744 0.000000 0.000000 0.000000 -2.048481 0.504187 -5.095088 2.868184 -0.284547 -1.278626 -6.767718 -17.861580 11.477249 0.000000 0.000000 0.000000 -1.902475 0.022232 1.300852 -1.939436 0.995226 6.077408 1.015987 1.543993 4.458591 0.534391 0.787718 -17.023174 0.000000 0.000000 0.000000 -30.809455 -20.193069 11.220709 -33.645162 -9.128910 -1.720300 -59.055530 -68.722265 45.935681 0.000000 0.000000 0.000000 32.326785 22.034641 12.098163 44.744623 8.597998 -1.052088 -23.266630 74.102867 -14.609051 0.000000 0.000000 0.000000 
0.000048 0.935695 0.001112 -1.962265 -4.352007 5.458859 4.614785 -0.196199 -2.112819 -0.162812 0.320088 -8.652925 -6.255645 -8.761919 7.691075 0.000000 0.000000 0.000000 -2.108847 0.535102 -5.435061 2.364807 -0.253245 -1.695182 -7.043488 -18.309901 11.284050 0.000000 0.000000 0.000000 -2.710421 0.074213 0.608714 -1.173136 0.567742 5.656289 1.572203 0.825173 4.916916 -0.893228 1.604002 -18.036015 0.000000 0.000000 0.000000 -30.734171 -19.366666 10.969643 -34.114385 -10.424655 -1.538539 -71.048607 -68.251639 55.704220 0.000000 0.000000 0.000000 30.689265 21.212980 10.970475 46.318473 6.325961 -1.855280 -19.234853 77.535213 -12.532295 0.000000 0.000000 0.000000 
0.000525 0.935676 0.001859 -2.147974 -4.822757 5.603625 5.602466 -0.181106 -1.907208 -1.685874 0.394526 -9.032538 -6.129552 -8.433806 7.928358 0.000000 0.000000 0.000000 -1.443074 0.566464 -5.775821 1.406545 -0.167445 -1.341739 -6.838402 -17.974848 11.169924 0.000000 0.000000 0.000000 -2.142563 0.072717 -0.170422 -0.605927 0.277434 4.724515 0.773515 0.627187 5.974205 -0.383329 1.194432 -16.470325 0.000000 0.000000 0.000000 -29.095770 -19.702693 11.128361 -35.516572 -11.460992 -1.396087 -65.384167 -68.974750 51.739771 0.000000 0.000000 0.000000 31.437027 21.412549 11.115500 45.942079 4.783621 -2.435043 -23.718526 76.675838 -15.893914 0.000000 0.000000 0.000000 
0.001023 0.935537 0.002554 -2.135440 -4.583312 5.717507 6.054151 -0.177657 -1.705178 -2.564219 0.437375 -9.620102 -6.354143 -8.613811 8.316313 0.000000 0.000000 0.000000 -1.298981 0.582338 -5.944659 1.082330 -0.135501 -1.132218 -6.975976 -18.206662 11.169568 0.000000 0.000000 0.000000 -2.240076 0.082088 -0.412511 -0.597241 0.267050 4.883465 1.178662 -0.262309 5.662454 -0.840240 1.380307 -16.492424 0.000000 0.000000 0.000000 -28.839143 -21.004621 12.353264 -35.852123 -12.520165 -1.185613 -68.018801 -69.817851 54.918730 0.000000 0.000000 0.000000 31.973684 22.016854 11.174752 45.991252 3.126988 -2.855663 -27.315728 78.547100 -19.737211 0.000000 0.000000 0.000000 
0.001519 0.935735 0.003315 -1.901502 -4.716312 5.152764 5.479507 -0.124287 -0.742281 -2.099736 0.435874 -10.143301 -6.392270 -8.602261 8.476260 0.000000 0.000000 0.000000 -1.432016 0.503575 -5.092059 0.792843 -0.124038 -1.520766 -6.879182 -18.027543 11.145663 0.000000 0.000000 0.000000 -1.881407 0.066482 -0.370265 -0.740116 0.345168 4.735549 0.877431 -0.761043 5.922274 -0.843926 1.292899 -15.646193 0.000000 0.000000 0.000000 -28.913305 -21.637708 13.038984 -36.060808 -13.256599 -1.071409 -67.698254 -70.323304 55.242935 0.000000 0.000000 0.000000 32.237526 22.258342 11.110993 45.383878 2.715569 -2.898559 -24.044256 78.633187 -17.241288 0.000000 0.000000 0.000000 
0.002033 0.936282 0.004048 -1.727997 -4.671613 4.638783 5.232839 -0.082148 -0.038998 -2.076286 0.439835 -10.350285 -6.521953 -8.700266 8.710149 0.000000 0.000000 0.000000 -2.104772 0.443160 -4.369738 1.610338 -0.195219 -1.746164 -6.849692 -17.967938 11.255891 0.000000 0.000000 0.000000 -1.915263 0.050733 0.141028 -0.547008 0.242793 4.737668 0.914835 -0.663387 6.051198 -0.907843 1.377105 -16.453400 0.000000 0.000000 0.000000 -28.011531 -22.481646 13.380258 -37.214969 -14.750880 -0.626708 -66.350266 -70.392983 54.180403 0.000000 0.000000 0.000000 32.195134 22.269760 11.169472 44.245151 2.710608 -2.852042 -25.880626 78.937193 -18.813484 0.000000 0.000000 0.000000 
0.002411 0.936428 0.004456 -1.628072 -4.690968 4.477413 5.109123 -0.064010 0.243953 -2.108398 0.444690 -10.504353 -6.563270 -8.712880 8.824010 0.000000 0.000000 0.000000 -2.017174 0.423022 -4.145596 1.206715 -0.165426 -1.800326 -6.834005 -17.940902 11.275191 0.000000 0.000000 0.000000 -1.634548 0.042001 0.116273 -0.670825 0.308070 5.024568 0.849740 -0.821114 5.851578 -0.846003 1.313160 -16.165955 0.000000 0.000000 0.000000 -27.744937 -22.504954 13.392220 -37.198418 -15.085333 -0.531883 -67.453160 -70.588582 55.332448 0.000000 0.000000 0.000000 32.341044 22.777678 11.474748 42.943896 3.571953 -2.436922 -25.963745 79.603350 -19.166181 0.000000 0.000000 0.000000 
